<mxfile host="Electron" modified="2023-11-22T13:11:36.639Z" agent="Mozilla/5.0 (Windows NT 10.0; Win64; x64) AppleWebKit/537.36 (KHTML, like Gecko) draw.io/22.1.2 Chrome/114.0.5735.289 Electron/25.9.4 Safari/537.36" etag="b4p-TFfr4VLo5Br1t0_0" version="22.1.2" type="device" pages="2">
  <diagram name="Page-1" id="pDMbOi06NpgcVXL0xbqy">
    <mxGraphModel dx="1948" dy="828" grid="1" gridSize="10" guides="1" tooltips="1" connect="1" arrows="1" fold="1" page="1" pageScale="1" pageWidth="850" pageHeight="1100" math="0" shadow="0">
      <root>
        <mxCell id="0" />
        <mxCell id="1" parent="0" />
        <mxCell id="osFX8CQt6mLmNGy1H5lw-13" value="Monitor&amp;nbsp; &amp;nbsp;&amp;nbsp;" style="rounded=1;whiteSpace=wrap;html=1;glass=0;sketch=0;strokeColor=#9673a6;fontSize=15;fillColor=#e1d5e7;opacity=50;align=right;" parent="1" vertex="1">
          <mxGeometry x="105" y="195" width="664" height="60" as="geometry" />
        </mxCell>
        <mxCell id="osFX8CQt6mLmNGy1H5lw-1" value="OLink Client" style="rounded=1;whiteSpace=wrap;html=1;fillColor=#ffe6cc;strokeColor=#d79b00;" parent="1" vertex="1">
          <mxGeometry x="109" y="264" width="126" height="60" as="geometry" />
        </mxCell>
        <mxCell id="osFX8CQt6mLmNGy1H5lw-2" value="Stub &lt;br&gt;(implementation)" style="rounded=1;whiteSpace=wrap;html=1;fillColor=#dae8fc;strokeColor=#6c8ebf;" parent="1" vertex="1">
          <mxGeometry x="375" y="264" width="120" height="60" as="geometry" />
        </mxCell>
        <mxCell id="osFX8CQt6mLmNGy1H5lw-7" value="" style="endArrow=none;dashed=1;html=1;dashPattern=1 3;strokeWidth=2;rounded=0;" parent="1" edge="1">
          <mxGeometry width="50" height="50" relative="1" as="geometry">
            <mxPoint x="-1" y="180" as="sourcePoint" />
            <mxPoint x="789" y="180" as="targetPoint" />
          </mxGeometry>
        </mxCell>
        <mxCell id="osFX8CQt6mLmNGy1H5lw-8" value="" style="endArrow=none;dashed=1;html=1;dashPattern=1 3;strokeWidth=2;rounded=0;startArrow=none;" parent="1" edge="1">
          <mxGeometry width="50" height="50" relative="1" as="geometry">
            <mxPoint x="390" y="335" as="sourcePoint" />
            <mxPoint x="789" y="335" as="targetPoint" />
          </mxGeometry>
        </mxCell>
        <mxCell id="osFX8CQt6mLmNGy1H5lw-12" value="" style="endArrow=none;dashed=1;html=1;dashPattern=1 3;strokeWidth=2;rounded=0;" parent="1" edge="1">
          <mxGeometry width="50" height="50" relative="1" as="geometry">
            <mxPoint y="335" as="sourcePoint" />
            <mxPoint x="340" y="335" as="targetPoint" />
          </mxGeometry>
        </mxCell>
        <mxCell id="osFX8CQt6mLmNGy1H5lw-10" value="IPC" style="text;html=1;align=center;verticalAlign=middle;resizable=0;points=[];autosize=1;strokeColor=none;fillColor=none;fontSize=15;" parent="1" vertex="1">
          <mxGeometry x="337" y="321" width="50" height="30" as="geometry" />
        </mxCell>
        <mxCell id="osFX8CQt6mLmNGy1H5lw-32" value="" style="endArrow=classic;startArrow=classic;html=1;rounded=0;fontSize=15;entryX=0.5;entryY=1;entryDx=0;entryDy=0;exitX=0.255;exitY=0.067;exitDx=0;exitDy=0;exitPerimeter=0;" parent="1" source="osFX8CQt6mLmNGy1H5lw-40" target="osFX8CQt6mLmNGy1H5lw-1" edge="1">
          <mxGeometry width="50" height="50" relative="1" as="geometry">
            <mxPoint x="176" y="451" as="sourcePoint" />
            <mxPoint x="173" y="391" as="targetPoint" />
            <Array as="points" />
          </mxGeometry>
        </mxCell>
        <mxCell id="osFX8CQt6mLmNGy1H5lw-35" value="" style="endArrow=classic;html=1;rounded=0;fontSize=15;entryX=-0.02;entryY=0.533;entryDx=0;entryDy=0;entryPerimeter=0;" parent="1" edge="1">
          <mxGeometry width="50" height="50" relative="1" as="geometry">
            <mxPoint x="769" y="226" as="sourcePoint" />
            <mxPoint x="816" y="225.99" as="targetPoint" />
          </mxGeometry>
        </mxCell>
        <mxCell id="osFX8CQt6mLmNGy1H5lw-38" value="" style="endArrow=classic;html=1;rounded=0;fontSize=15;startArrow=classic;startFill=1;" parent="1" edge="1">
          <mxGeometry width="50" height="50" relative="1" as="geometry">
            <mxPoint x="160" y="325" as="sourcePoint" />
            <mxPoint x="70" y="416" as="targetPoint" />
          </mxGeometry>
        </mxCell>
        <mxCell id="osFX8CQt6mLmNGy1H5lw-39" value="ApiGear Simulation" style="text;html=1;align=center;verticalAlign=middle;resizable=0;points=[];autosize=1;strokeColor=none;fillColor=none;fontSize=15;" parent="1" vertex="1">
          <mxGeometry x="-8" y="414" width="150" height="30" as="geometry" />
        </mxCell>
        <mxCell id="osFX8CQt6mLmNGy1H5lw-40" value="OLink Server" style="text;html=1;align=center;verticalAlign=middle;resizable=0;points=[];autosize=1;strokeColor=none;fillColor=none;fontSize=15;" parent="1" vertex="1">
          <mxGeometry x="145" y="414" width="110" height="30" as="geometry" />
        </mxCell>
        <mxCell id="osFX8CQt6mLmNGy1H5lw-41" value="ApiGear Monitoring" style="text;html=1;align=center;verticalAlign=middle;resizable=0;points=[];autosize=1;strokeColor=none;fillColor=none;fontSize=15;" parent="1" vertex="1">
          <mxGeometry x="820" y="210" width="150" height="30" as="geometry" />
        </mxCell>
        <mxCell id="P-QwNKS1a3PaDMIIGMlF-1" value="MQTT Client" style="rounded=1;whiteSpace=wrap;html=1;fillColor=#f8cecc;strokeColor=#b85450;" parent="1" vertex="1">
          <mxGeometry x="245" y="264" width="120" height="60" as="geometry" />
        </mxCell>
        <mxCell id="P-QwNKS1a3PaDMIIGMlF-3" value="Mqtt Service" style="text;html=1;align=center;verticalAlign=middle;resizable=0;points=[];autosize=1;strokeColor=none;fillColor=none;fontSize=15;" parent="1" vertex="1">
          <mxGeometry x="275" y="414" width="110" height="30" as="geometry" />
        </mxCell>
        <mxCell id="P-QwNKS1a3PaDMIIGMlF-9" value="Monitor&amp;nbsp; &amp;nbsp;&amp;nbsp;" style="rounded=1;whiteSpace=wrap;html=1;glass=0;sketch=0;strokeColor=#9673a6;fontSize=15;fillColor=#e1d5e7;opacity=50;align=right;" parent="1" vertex="1">
          <mxGeometry x="133" y="775" width="488" height="60" as="geometry" />
        </mxCell>
        <mxCell id="P-QwNKS1a3PaDMIIGMlF-10" value="OLink Service" style="rounded=1;whiteSpace=wrap;html=1;fillColor=#ffe6cc;strokeColor=#d79b00;" parent="1" vertex="1">
          <mxGeometry x="137" y="697" width="120" height="70" as="geometry" />
        </mxCell>
        <mxCell id="P-QwNKS1a3PaDMIIGMlF-11" value="Stub&lt;br&gt;(implementation)" style="rounded=1;whiteSpace=wrap;html=1;fillColor=#dae8fc;strokeColor=#6c8ebf;" parent="1" vertex="1">
          <mxGeometry x="136" y="843" width="198" height="70" as="geometry" />
        </mxCell>
        <mxCell id="P-QwNKS1a3PaDMIIGMlF-12" value="Api: Interface" style="rounded=1;whiteSpace=wrap;html=1;fillColor=#d5e8d4;strokeColor=#82b366;" parent="1" vertex="1">
          <mxGeometry x="136" y="768" width="400" height="74" as="geometry" />
        </mxCell>
        <mxCell id="P-QwNKS1a3PaDMIIGMlF-13" value="" style="endArrow=none;dashed=1;html=1;dashPattern=1 3;strokeWidth=2;rounded=0;" parent="1" edge="1">
          <mxGeometry width="50" height="50" relative="1" as="geometry">
            <mxPoint x="72" y="687" as="sourcePoint" />
            <mxPoint x="570" y="687" as="targetPoint" />
          </mxGeometry>
        </mxCell>
        <mxCell id="P-QwNKS1a3PaDMIIGMlF-14" value="IPC" style="text;html=1;align=center;verticalAlign=middle;resizable=0;points=[];autosize=1;strokeColor=none;fillColor=none;fontSize=15;" parent="1" vertex="1">
          <mxGeometry x="526" y="690" width="50" height="30" as="geometry" />
        </mxCell>
        <mxCell id="P-QwNKS1a3PaDMIIGMlF-15" value="" style="endArrow=classic;startArrow=classic;html=1;rounded=0;fontSize=15;entryX=0.5;entryY=0;entryDx=0;entryDy=0;" parent="1" target="P-QwNKS1a3PaDMIIGMlF-10" edge="1">
          <mxGeometry width="50" height="50" relative="1" as="geometry">
            <mxPoint x="197" y="605" as="sourcePoint" />
            <mxPoint x="366" y="980" as="targetPoint" />
            <Array as="points" />
          </mxGeometry>
        </mxCell>
        <mxCell id="P-QwNKS1a3PaDMIIGMlF-18" value="MQTT Service" style="rounded=1;whiteSpace=wrap;html=1;fillColor=#f8cecc;strokeColor=#b85450;" parent="1" vertex="1">
          <mxGeometry x="265" y="697" width="120" height="70" as="geometry" />
        </mxCell>
        <mxCell id="P-QwNKS1a3PaDMIIGMlF-24" value="" style="endArrow=classic;startArrow=classic;html=1;rounded=0;fontSize=15;entryX=0.45;entryY=0.05;entryDx=0;entryDy=0;entryPerimeter=0;" parent="1" target="P-QwNKS1a3PaDMIIGMlF-18" edge="1">
          <mxGeometry width="50" height="50" relative="1" as="geometry">
            <mxPoint x="319" y="605" as="sourcePoint" />
            <mxPoint x="320" y="700" as="targetPoint" />
            <Array as="points" />
          </mxGeometry>
        </mxCell>
        <mxCell id="P-QwNKS1a3PaDMIIGMlF-27" value="" style="endArrow=classic;html=1;rounded=0;fontSize=15;entryX=0.013;entryY=0.6;entryDx=0;entryDy=0;entryPerimeter=0;" parent="1" edge="1">
          <mxGeometry width="50" height="50" relative="1" as="geometry">
            <mxPoint x="623" y="807.5" as="sourcePoint" />
            <mxPoint x="671.95" y="808" as="targetPoint" />
          </mxGeometry>
        </mxCell>
        <mxCell id="P-QwNKS1a3PaDMIIGMlF-28" value="ApiGear Monitoring" style="text;html=1;align=center;verticalAlign=middle;resizable=0;points=[];autosize=1;strokeColor=none;fillColor=none;fontSize=15;" parent="1" vertex="1">
          <mxGeometry x="670" y="790" width="150" height="30" as="geometry" />
        </mxCell>
        <mxCell id="P-QwNKS1a3PaDMIIGMlF-29" value="Mqtt Clients" style="text;html=1;align=center;verticalAlign=middle;resizable=0;points=[];autosize=1;strokeColor=none;fillColor=none;fontSize=15;" parent="1" vertex="1">
          <mxGeometry x="275" y="580" width="100" height="30" as="geometry" />
        </mxCell>
        <mxCell id="P-QwNKS1a3PaDMIIGMlF-30" value="OLink Clients" style="text;html=1;align=center;verticalAlign=middle;resizable=0;points=[];autosize=1;strokeColor=none;fillColor=none;fontSize=15;" parent="1" vertex="1">
          <mxGeometry x="142" y="580" width="110" height="30" as="geometry" />
        </mxCell>
        <mxCell id="oVOpRE-Unie1jItmy-X_-1" value="Api: Interface" style="rounded=1;whiteSpace=wrap;html=1;fillColor=#d5e8d4;strokeColor=#82b366;" parent="1" vertex="1">
          <mxGeometry x="113" y="180" width="575" height="83" as="geometry" />
        </mxCell>
        <mxCell id="oVOpRE-Unie1jItmy-X_-2" value="Users of API Interface" style="rounded=1;whiteSpace=wrap;html=1;fillColor=#e1d5e7;strokeColor=#9673a6;" parent="1" vertex="1">
          <mxGeometry x="113" y="159" width="575" height="20" as="geometry" />
        </mxCell>
        <mxCell id="oVOpRE-Unie1jItmy-X_-12" value="Thread Safe&lt;br&gt;Decorator" style="rounded=1;whiteSpace=wrap;html=1;fillColor=#1ba1e2;fontColor=#ffffff;strokeColor=#006EAF;align=right;" parent="1" vertex="1">
          <mxGeometry x="498" y="264" width="190" height="60" as="geometry" />
        </mxCell>
        <mxCell id="oVOpRE-Unie1jItmy-X_-7" value="Stub&lt;br&gt;(implementation)" style="rounded=1;whiteSpace=wrap;html=1;fillColor=#dae8fc;strokeColor=#6c8ebf;arcSize=14;align=center;" parent="1" vertex="1">
          <mxGeometry x="505" y="267" width="110.5" height="54" as="geometry" />
        </mxCell>
        <mxCell id="oVOpRE-Unie1jItmy-X_-13" value="Thread Safe&lt;br&gt;Decorator" style="rounded=1;whiteSpace=wrap;html=1;fillColor=#1ba1e2;fontColor=#ffffff;strokeColor=#006EAF;align=right;" parent="1" vertex="1">
          <mxGeometry x="337" y="843" width="198" height="70" as="geometry" />
        </mxCell>
        <mxCell id="oVOpRE-Unie1jItmy-X_-14" value="Stub&lt;br&gt;(implementation)" style="rounded=1;whiteSpace=wrap;html=1;fillColor=#dae8fc;strokeColor=#6c8ebf;arcSize=14;align=center;" parent="1" vertex="1">
          <mxGeometry x="341.75" y="846" width="110.5" height="64" as="geometry" />
        </mxCell>
        <mxCell id="oVOpRE-Unie1jItmy-X_-18" value="Users of API Interface" style="rounded=1;whiteSpace=wrap;html=1;fillColor=#e1d5e7;strokeColor=#9673a6;" parent="1" vertex="1">
          <mxGeometry x="389" y="737" width="145" height="30" as="geometry" />
        </mxCell>
        <mxCell id="m8utxgsKPye0XfjifVQN-2" style="edgeStyle=orthogonalEdgeStyle;rounded=0;orthogonalLoop=1;jettySize=auto;html=1;exitX=0.5;exitY=1;exitDx=0;exitDy=0;entryX=0.273;entryY=-0.1;entryDx=0;entryDy=0;entryPerimeter=0;strokeColor=none;" parent="1" source="P-QwNKS1a3PaDMIIGMlF-1" target="P-QwNKS1a3PaDMIIGMlF-3" edge="1">
          <mxGeometry relative="1" as="geometry" />
        </mxCell>
        <mxCell id="m8utxgsKPye0XfjifVQN-3" value="" style="endArrow=classic;startArrow=classic;html=1;rounded=0;fontSize=15;entryX=0.5;entryY=1;entryDx=0;entryDy=0;exitX=0.255;exitY=0.067;exitDx=0;exitDy=0;exitPerimeter=0;" parent="1" edge="1">
          <mxGeometry width="50" height="50" relative="1" as="geometry">
            <mxPoint x="305" y="416" as="sourcePoint" />
            <mxPoint x="304" y="324" as="targetPoint" />
            <Array as="points" />
          </mxGeometry>
        </mxCell>
      </root>
    </mxGraphModel>
  </diagram>
  <diagram id="FQb99FB6nM29fIYBV_YS" name="Page-2">
    <mxGraphModel dx="1098" dy="1928" grid="1" gridSize="11" guides="1" tooltips="1" connect="1" arrows="1" fold="1" page="1" pageScale="1" pageWidth="850" pageHeight="1100" math="0" shadow="0">
      <root>
        <mxCell id="0" />
        <mxCell id="1" parent="0" />
        <mxCell id="6bvlrEtEFYt903VRQleQ-1" value="Example" style="rounded=1;whiteSpace=wrap;html=1;glass=0;horizontal=1;verticalAlign=top;align=center;labelPosition=center;verticalLabelPosition=middle;fontSize=15;fillColor=#fff2cc;strokeColor=#d6b656;opacity=50;" vertex="1" parent="1">
          <mxGeometry x="101" y="-1070" width="150" height="257" as="geometry" />
        </mxCell>
        <mxCell id="6bvlrEtEFYt903VRQleQ-2" value="Monitor&amp;nbsp; &amp;nbsp;&amp;nbsp;" style="rounded=1;whiteSpace=wrap;html=1;glass=0;sketch=0;strokeColor=#9673a6;fontSize=15;fillColor=#e1d5e7;opacity=50;align=right;" vertex="1" parent="1">
          <mxGeometry x="111" y="-980" width="230" height="80" as="geometry" />
        </mxCell>
        <mxCell id="6bvlrEtEFYt903VRQleQ-3" value="OLink Server" style="rounded=1;whiteSpace=wrap;html=1;fillColor=#ffe6cc;strokeColor=#d79b00;" vertex="1" parent="1">
          <mxGeometry x="121" y="-896" width="120" height="60" as="geometry" />
        </mxCell>
        <mxCell id="6bvlrEtEFYt903VRQleQ-4" value="Stub" style="rounded=1;whiteSpace=wrap;html=1;fillColor=#dae8fc;strokeColor=#6c8ebf;" vertex="1" parent="1">
          <mxGeometry x="116" y="-1040" width="120" height="60" as="geometry" />
        </mxCell>
        <mxCell id="6bvlrEtEFYt903VRQleQ-5" value="Api" style="rounded=1;whiteSpace=wrap;html=1;fillColor=#d5e8d4;strokeColor=#82b366;" vertex="1" parent="1">
          <mxGeometry x="121" y="-970" width="120" height="64" as="geometry" />
        </mxCell>
        <mxCell id="6bvlrEtEFYt903VRQleQ-6" value="" style="endArrow=none;dashed=1;html=1;dashPattern=1 3;strokeWidth=2;rounded=0;startArrow=none;" edge="1" parent="1" source="6bvlrEtEFYt903VRQleQ-8">
          <mxGeometry width="50" height="50" relative="1" as="geometry">
            <mxPoint x="-69" y="-806" as="sourcePoint" />
            <mxPoint x="251" y="-806" as="targetPoint" />
          </mxGeometry>
        </mxCell>
        <mxCell id="6bvlrEtEFYt903VRQleQ-7" value="" style="endArrow=none;dashed=1;html=1;dashPattern=1 3;strokeWidth=2;rounded=0;" edge="1" parent="1" target="6bvlrEtEFYt903VRQleQ-8">
          <mxGeometry width="50" height="50" relative="1" as="geometry">
            <mxPoint x="100" y="-806" as="sourcePoint" />
            <mxPoint x="260" y="-806" as="targetPoint" />
          </mxGeometry>
        </mxCell>
        <mxCell id="6bvlrEtEFYt903VRQleQ-8" value="IPC" style="text;html=1;align=center;verticalAlign=middle;resizable=0;points=[];autosize=1;strokeColor=none;fillColor=none;fontSize=15;" vertex="1" parent="1">
          <mxGeometry x="190" y="-821" width="50" height="30" as="geometry" />
        </mxCell>
        <mxCell id="6bvlrEtEFYt903VRQleQ-9" value="" style="endArrow=none;dashed=1;html=1;dashPattern=1 3;strokeWidth=2;rounded=0;startArrow=none;" edge="1" parent="1">
          <mxGeometry width="50" height="50" relative="1" as="geometry">
            <mxPoint x="240" y="-806.5" as="sourcePoint" />
            <mxPoint x="260" y="-806.5" as="targetPoint" />
          </mxGeometry>
        </mxCell>
        <mxCell id="6bvlrEtEFYt903VRQleQ-10" value="" style="endArrow=classic;startArrow=classic;html=1;rounded=0;fontSize=15;" edge="1" parent="1">
          <mxGeometry width="50" height="50" relative="1" as="geometry">
            <mxPoint x="181" y="-765" as="sourcePoint" />
            <mxPoint x="181" y="-835" as="targetPoint" />
            <Array as="points">
              <mxPoint x="181" y="-805" />
            </Array>
          </mxGeometry>
        </mxCell>
        <mxCell id="6bvlrEtEFYt903VRQleQ-11" value="" style="endArrow=classic;html=1;rounded=0;fontSize=15;exitX=1;exitY=0.5;exitDx=0;exitDy=0;" edge="1" parent="1" source="6bvlrEtEFYt903VRQleQ-2">
          <mxGeometry width="50" height="50" relative="1" as="geometry">
            <mxPoint x="291" y="-1050" as="sourcePoint" />
            <mxPoint x="411" y="-940" as="targetPoint" />
          </mxGeometry>
        </mxCell>
        <mxCell id="6bvlrEtEFYt903VRQleQ-12" value="ApiGear Monitoring" style="text;html=1;align=center;verticalAlign=middle;resizable=0;points=[];autosize=1;strokeColor=none;fillColor=none;fontSize=15;" vertex="1" parent="1">
          <mxGeometry x="410" y="-953" width="150" height="30" as="geometry" />
        </mxCell>
        <mxCell id="6bvlrEtEFYt903VRQleQ-13" value="OLink Clients" style="text;html=1;align=center;verticalAlign=middle;resizable=0;points=[];autosize=1;strokeColor=none;fillColor=none;fontSize=15;" vertex="1" parent="1">
          <mxGeometry x="130" y="-760" width="110" height="30" as="geometry" />
        </mxCell>
      </root>
    </mxGraphModel>
  </diagram>
</mxfile>
